<?xml version="1.0" encoding="utf-8"?>
<!-- Generator: Adobe Illustrator 22.1.0, SVG Export Plug-In . SVG Version: 6.00 Build 0)  -->
<svg version="1.1" id="Layer_1" xmlns="http://www.w3.org/2000/svg" xmlns:xlink="http://www.w3.org/1999/xlink" x="0px" y="0px"
	 width="31.3px" height="18.5px" viewBox="0 0 31.3 18.5" style="enable-background:new 0 0 31.3 18.5;" xml:space="preserve">
<style type="text/css">
	.st0{fill:#4E4347;}
	.st1{fill:#FFD700;}
</style>
<polygon class="st0" points="7.3,1.1 0,6.8 7.4,12.1 30.2,12.1 30.6,11.3 30.1,10.4 31.1,9.1 30.4,8.2 31.3,7.1 30.2,6.2 31.3,5.4 
	30.6,4.5 31.3,3.4 30.2,2.8 30.9,1.9 30.4,1.1 "/>
<rect x="21.3" y="-0.1" class="st0" width="2.9" height="18.6"/>
<polygon class="st1" points="10.1,3.1 4.7,6.7 10.2,10.1 27.1,10.1 27.3,9.6 27,9 27.7,8.2 27.2,7.6 27.8,6.9 27.1,6.3 27.8,5.8 
	27.3,5.3 27.8,4.6 27.1,4.2 27.5,3.6 27.2,3.1 "/>
</svg>
